<mxfile host="app.diagrams.net" modified="2023-05-23T14:33:02.983Z" agent="Mozilla/5.0 (Windows NT 10.0; Win64; x64) AppleWebKit/537.36 (KHTML, like Gecko) Chrome/100.0.4896.127 Safari/537.36" etag="KqZYuyaqDzMYwVLJh7pR" version="21.3.3" type="github">
  <diagram name="PÃ¡gina-1" id="LgEycwtXLsdToQAcVoGv">
    <mxGraphModel dx="993" dy="588" grid="1" gridSize="10" guides="1" tooltips="1" connect="1" arrows="1" fold="1" page="1" pageScale="1" pageWidth="827" pageHeight="1169" math="0" shadow="0">
      <root>
        <mxCell id="0" />
        <mxCell id="1" parent="0" />
        <mxCell id="hU7q1G1eWOHIqsAWKsF5-3" style="edgeStyle=orthogonalEdgeStyle;rounded=0;orthogonalLoop=1;jettySize=auto;html=1;entryX=0.5;entryY=0;entryDx=0;entryDy=0;" parent="1" source="hU7q1G1eWOHIqsAWKsF5-1" target="hU7q1G1eWOHIqsAWKsF5-2" edge="1">
          <mxGeometry relative="1" as="geometry" />
        </mxCell>
        <mxCell id="hU7q1G1eWOHIqsAWKsF5-1" value="" style="rounded=0;whiteSpace=wrap;html=1;" parent="1" vertex="1">
          <mxGeometry x="350" y="220" width="120" height="60" as="geometry" />
        </mxCell>
        <mxCell id="hU7q1G1eWOHIqsAWKsF5-2" value="" style="ellipse;whiteSpace=wrap;html=1;aspect=fixed;" parent="1" vertex="1">
          <mxGeometry x="370" y="330" width="80" height="80" as="geometry" />
        </mxCell>
        <mxCell id="hU7q1G1eWOHIqsAWKsF5-4" value="&lt;h1&gt;DFD Nivel 1 Registro de Clientes&amp;nbsp;&lt;/h1&gt;" style="text;html=1;strokeColor=none;fillColor=none;spacing=5;spacingTop=-20;whiteSpace=wrap;overflow=hidden;rounded=0;" parent="1" vertex="1">
          <mxGeometry x="360" y="450" width="380" height="120" as="geometry" />
        </mxCell>
        <mxCell id="iUJvOWc-ZDj5wg6FOy0K-1" value="" style="rounded=1;whiteSpace=wrap;html=1;" vertex="1" parent="1">
          <mxGeometry x="510" y="220" width="120" height="60" as="geometry" />
        </mxCell>
        <mxCell id="iUJvOWc-ZDj5wg6FOy0K-2" value="" style="rhombus;whiteSpace=wrap;html=1;" vertex="1" parent="1">
          <mxGeometry x="530" y="340" width="80" height="80" as="geometry" />
        </mxCell>
      </root>
    </mxGraphModel>
  </diagram>
</mxfile>
